<svg version="1.0" xmlns="http://www.w3.org/2000/svg"
 width="1207.000000pt" height="1760.000000pt" viewBox="0 0 1207.000000 1760.000000"
 preserveAspectRatio="xMidYMid meet">

<g transform="translate(0.000000,1760.000000) scale(0.100000,-0.100000)"
fill="#000000" stroke="none">
<path d="M5740 15670 c-14 -4 -56 -9 -95 -9 -159 -3 -288 -67 -454 -226 -63
-60 -130 -134 -149 -164 -49 -76 -154 -370 -159 -446 -4 -56 -2 -62 25 -88
l29 -28 257 -14 c142 -7 259 -15 261 -17 8 -8 -25 -248 -36 -266 -28 -44 -7
-48 257 -56 164 -4 252 -11 266 -19 18 -11 29 -2 121 96 107 112 129 124 177
95 15 -10 23 -9 39 6 12 11 21 30 21 42 0 25 8 28 93 38 30 4 55 1 67 -7 17
-10 24 -7 52 20 28 29 30 35 20 55 -9 16 -12 67 -10 165 2 116 0 145 -12 157
-12 12 -63 18 -223 27 -114 6 -226 9 -248 7 l-39 -4 0 81 c-1 44 -5 165 -9
270 -8 180 -8 190 10 203 23 16 24 35 3 53 -28 23 -219 45 -264 29z"/>
<path d="M5115 13290 c-3 -5 -6 -295 -5 -642 0 -527 3 -635 15 -647 17 -17 45
-7 52 17 4 18 19 18 266 14 204 -3 265 -7 278 -18 20 -18 33 -18 47 -1 8 9 13
196 17 593 3 318 8 591 11 605 3 16 -1 31 -10 38 -10 8 -110 19 -283 32 -306
21 -379 23 -388 9z"/>
<path d="M5229 9134 c-17 -21 0 -48 32 -52 l24 -3 -3 -426 c-2 -412 -3 -427
-22 -440 -27 -19 -25 -30 13 -69 37 -39 50 -42 70 -14 14 19 19 20 326 9 269
-9 316 -8 335 4 22 15 22 20 39 483 18 496 17 501 -28 490 -12 -3 -177 3 -366
14 -415 24 -403 24 -420 4z"/>
<path d="M3722 7363 c-19 -17 -21 -46 -42 -565 -25 -599 -25 -585 32 -573 16
4 447 -1 959 -10 741 -14 932 -15 944 -5 10 9 13 23 9 49 -5 33 18 704 32 918
5 83 8 92 26 95 31 5 46 34 27 53 -12 12 -57 16 -244 20 -127 3 -511 12 -855
20 -827 20 -863 20 -888 -2z"/>
<path d="M7890 4835 c-8 -9 -10 -34 -5 -77 3 -35 2 -155 -4 -268 -7 -155 -7
-208 2 -219 10 -12 69 -13 387 -7 282 5 378 9 387 19 20 19 41 530 23 552 -18
22 -771 23 -790 0z"/>
<path d="M3593 4263 c-12 -2 -26 -10 -31 -16 -5 -7 -15 -188 -21 -407 -6 -217
-14 -412 -16 -432 -3 -23 0 -40 7 -45 7 -4 179 -6 383 -5 313 2 372 5 385 17
11 12 12 20 4 33 -8 12 -9 131 -6 382 4 342 6 366 23 378 26 18 24 30 -13 68
-37 38 -45 40 -69 18 -16 -14 -39 -14 -271 0 -247 16 -331 18 -375 9z"/>
<path d="M6832 4148 c-8 -10 -52 -12 -189 -7 -98 4 -224 7 -280 8 -96 1 -103
0 -117 -21 -10 -18 -16 -114 -25 -433 -6 -225 -13 -429 -15 -452 l-3 -43 312
0 c268 0 314 2 325 15 18 21 54 913 38 932 -13 16 -33 17 -46 1z"/>
</g>
</svg>
